<mxfile host="app.diagrams.net" modified="2024-03-17T18:49:03.098Z" agent="Mozilla/5.0 (Windows NT 10.0; Win64; x64; rv:123.0) Gecko/20100101 Firefox/123.0" etag="luYT5-gPKyDQx9N36yD3" version="24.0.7" type="device">
  <diagram name="Page-1" id="JkGtk0IPezqZ1_RtU47O">
    <mxGraphModel dx="1834" dy="1134" grid="0" gridSize="10" guides="1" tooltips="1" connect="1" arrows="1" fold="1" page="0" pageScale="1" pageWidth="827" pageHeight="1169" math="0" shadow="0">
      <root>
        <mxCell id="0" />
        <mxCell id="1" parent="0" />
        <mxCell id="XcIPjAKrSNz59W1vHto7-1" value="&amp;lt;&amp;lt;enumeration&amp;gt;&amp;gt;&lt;br&gt;PlayerState" style="swimlane;fontStyle=1;align=center;verticalAlign=top;childLayout=stackLayout;horizontal=1;startSize=40;horizontalStack=0;resizeParent=1;resizeParentMax=0;resizeLast=0;collapsible=1;marginBottom=0;whiteSpace=wrap;html=1;" parent="1" vertex="1">
          <mxGeometry x="973" y="261" width="160" height="112" as="geometry" />
        </mxCell>
        <mxCell id="XcIPjAKrSNz59W1vHto7-2" value="&lt;div&gt;+ PLACING&lt;/div&gt;&lt;div&gt;+ MOVING&lt;br&gt;&lt;/div&gt;" style="text;strokeColor=none;fillColor=none;align=left;verticalAlign=top;spacingLeft=4;spacingRight=4;overflow=hidden;rotatable=0;points=[[0,0.5],[1,0.5]];portConstraint=eastwest;whiteSpace=wrap;html=1;" parent="XcIPjAKrSNz59W1vHto7-1" vertex="1">
          <mxGeometry y="40" width="160" height="64" as="geometry" />
        </mxCell>
        <mxCell id="XcIPjAKrSNz59W1vHto7-3" value="" style="line;strokeWidth=1;fillColor=none;align=left;verticalAlign=middle;spacingTop=-1;spacingLeft=3;spacingRight=3;rotatable=0;labelPosition=right;points=[];portConstraint=eastwest;strokeColor=inherit;" parent="XcIPjAKrSNz59W1vHto7-1" vertex="1">
          <mxGeometry y="104" width="160" height="8" as="geometry" />
        </mxCell>
        <mxCell id="XcIPjAKrSNz59W1vHto7-9" value="Field" style="swimlane;fontStyle=1;align=center;verticalAlign=top;childLayout=stackLayout;horizontal=1;startSize=26;horizontalStack=0;resizeParent=1;resizeParentMax=0;resizeLast=0;collapsible=1;marginBottom=0;whiteSpace=wrap;html=1;" parent="1" vertex="1">
          <mxGeometry x="287.5" y="153" width="286" height="249" as="geometry" />
        </mxCell>
        <mxCell id="XcIPjAKrSNz59W1vHto7-10" value="&lt;div&gt;+ NUM_POSITIONS : int&lt;/div&gt;&lt;div&gt;+ NUM_MILL_COMBINATIONS: int&lt;/div&gt;&lt;div&gt;- numOfPiecesPlaced: int&lt;/div&gt;&lt;div&gt;- millCombinations: Tile[ ][ ]&lt;/div&gt;&lt;div&gt;- boardPositions: TIle[ ]&lt;br&gt;&lt;/div&gt;&lt;div&gt;&amp;nbsp;&lt;br&gt;&lt;/div&gt;&lt;div&gt;&lt;br&gt;&lt;/div&gt;&lt;div&gt;&lt;br&gt;&lt;/div&gt;&lt;div&gt;&lt;br&gt;&lt;/div&gt;" style="text;strokeColor=none;fillColor=none;align=left;verticalAlign=top;spacingLeft=4;spacingRight=4;overflow=hidden;rotatable=0;points=[[0,0.5],[1,0.5]];portConstraint=eastwest;whiteSpace=wrap;html=1;" parent="XcIPjAKrSNz59W1vHto7-9" vertex="1">
          <mxGeometry y="26" width="286" height="83" as="geometry" />
        </mxCell>
        <mxCell id="XcIPjAKrSNz59W1vHto7-11" value="" style="line;strokeWidth=1;fillColor=none;align=left;verticalAlign=middle;spacingTop=-1;spacingLeft=3;spacingRight=3;rotatable=0;labelPosition=right;points=[];portConstraint=eastwest;strokeColor=inherit;" parent="XcIPjAKrSNz59W1vHto7-9" vertex="1">
          <mxGeometry y="109" width="286" height="8" as="geometry" />
        </mxCell>
        <mxCell id="XcIPjAKrSNz59W1vHto7-12" value="&lt;div&gt;- initializeField()&lt;/div&gt;&lt;div&gt;- initializeMillCombinations()&lt;/div&gt;&lt;div&gt;- movePiece(source: int, destination: int)&lt;/div&gt;&lt;div&gt;- placePiece(index: int)&lt;/div&gt;&lt;div&gt;- removePiece(source: int)&lt;/div&gt;&lt;div&gt;- wasMillCreated(source: int) : boolean&lt;br&gt;&lt;/div&gt;&lt;div&gt;- isMoveValid(source: int, destination: int) : boolean&lt;br&gt;&lt;/div&gt;" style="text;strokeColor=none;fillColor=none;align=left;verticalAlign=top;spacingLeft=4;spacingRight=4;overflow=hidden;rotatable=0;points=[[0,0.5],[1,0.5]];portConstraint=eastwest;whiteSpace=wrap;html=1;" parent="XcIPjAKrSNz59W1vHto7-9" vertex="1">
          <mxGeometry y="117" width="286" height="132" as="geometry" />
        </mxCell>
        <mxCell id="XcIPjAKrSNz59W1vHto7-13" value="Player" style="swimlane;fontStyle=1;align=center;verticalAlign=top;childLayout=stackLayout;horizontal=1;startSize=26;horizontalStack=0;resizeParent=1;resizeParentMax=0;resizeLast=0;collapsible=1;marginBottom=0;whiteSpace=wrap;html=1;" parent="1" vertex="1">
          <mxGeometry x="963" y="-78.5" width="180" height="196" as="geometry" />
        </mxCell>
        <mxCell id="XcIPjAKrSNz59W1vHto7-14" value="&lt;div&gt;- numOfPieces: int&lt;/div&gt;&lt;div&gt;- String name;&lt;/div&gt;&lt;div&gt;- canMove: boolean&lt;/div&gt;&lt;div&gt;- state: PlayerState&lt;br&gt;&lt;/div&gt;" style="text;strokeColor=none;fillColor=none;align=left;verticalAlign=top;spacingLeft=4;spacingRight=4;overflow=hidden;rotatable=0;points=[[0,0.5],[1,0.5]];portConstraint=eastwest;whiteSpace=wrap;html=1;" parent="XcIPjAKrSNz59W1vHto7-13" vertex="1">
          <mxGeometry y="26" width="180" height="78" as="geometry" />
        </mxCell>
        <mxCell id="XcIPjAKrSNz59W1vHto7-15" value="" style="line;strokeWidth=1;fillColor=none;align=left;verticalAlign=middle;spacingTop=-1;spacingLeft=3;spacingRight=3;rotatable=0;labelPosition=right;points=[];portConstraint=eastwest;strokeColor=inherit;" parent="XcIPjAKrSNz59W1vHto7-13" vertex="1">
          <mxGeometry y="104" width="180" height="8" as="geometry" />
        </mxCell>
        <mxCell id="XcIPjAKrSNz59W1vHto7-16" value="&lt;div&gt;+ getName(): String&lt;/div&gt;&lt;div&gt;+ setName(name: String)&lt;/div&gt;&lt;div&gt;+ getNumOfPieces(): int&lt;/div&gt;&lt;div&gt;&lt;br&gt;&lt;/div&gt;" style="text;strokeColor=none;fillColor=none;align=left;verticalAlign=top;spacingLeft=4;spacingRight=4;overflow=hidden;rotatable=0;points=[[0,0.5],[1,0.5]];portConstraint=eastwest;whiteSpace=wrap;html=1;" parent="XcIPjAKrSNz59W1vHto7-13" vertex="1">
          <mxGeometry y="112" width="180" height="84" as="geometry" />
        </mxCell>
        <mxCell id="XcIPjAKrSNz59W1vHto7-17" value="Tile" style="swimlane;fontStyle=1;align=center;verticalAlign=top;childLayout=stackLayout;horizontal=1;startSize=26;horizontalStack=0;resizeParent=1;resizeParentMax=0;resizeLast=0;collapsible=1;marginBottom=0;whiteSpace=wrap;html=1;" parent="1" vertex="1">
          <mxGeometry x="-211" y="136" width="255" height="304" as="geometry" />
        </mxCell>
        <mxCell id="XcIPjAKrSNz59W1vHto7-19" value="" style="line;strokeWidth=1;fillColor=none;align=left;verticalAlign=middle;spacingTop=-1;spacingLeft=3;spacingRight=3;rotatable=0;labelPosition=right;points=[];portConstraint=eastwest;strokeColor=inherit;" parent="XcIPjAKrSNz59W1vHto7-17" vertex="1">
          <mxGeometry y="26" width="255" height="8" as="geometry" />
        </mxCell>
        <mxCell id="XcIPjAKrSNz59W1vHto7-18" value="&lt;div&gt;- isOccupied: Tile.State&lt;/div&gt;&lt;div&gt;- tileIndex: int&lt;/div&gt;&lt;div&gt;- playerOccupying: Player&lt;br&gt;&lt;/div&gt;&lt;div&gt;- adjacentPositionsIndexes: int[ ]&lt;br&gt;&lt;/div&gt;" style="text;strokeColor=none;fillColor=none;align=left;verticalAlign=top;spacingLeft=4;spacingRight=4;overflow=hidden;rotatable=0;points=[[0,0.5],[1,0.5]];portConstraint=eastwest;whiteSpace=wrap;html=1;" parent="XcIPjAKrSNz59W1vHto7-17" vertex="1">
          <mxGeometry y="34" width="255" height="94" as="geometry" />
        </mxCell>
        <mxCell id="XcIPjAKrSNz59W1vHto7-20" value="&lt;div&gt;+ setOccupied(player: Player)&lt;/div&gt;&lt;div&gt;+ setAsUnoccupied()&lt;br&gt;&lt;/div&gt;&lt;div&gt;+ getPlayerOccupying(): Player&lt;/div&gt;&lt;div&gt;+ isOccupied(): Tile.State&lt;/div&gt;&lt;div&gt;+ getPositionIndex(): int&lt;/div&gt;&lt;div&gt;+ addAdjacentPositionsIndexes(pos1: int, pos2: int, pos3: int)&lt;/div&gt;&lt;div&gt;+ isAdjacentTo(tileIndex: int) : boolean&lt;br&gt;&lt;/div&gt;&lt;div&gt;&lt;br&gt;&lt;/div&gt;" style="text;strokeColor=none;fillColor=none;align=left;verticalAlign=top;spacingLeft=4;spacingRight=4;overflow=hidden;rotatable=0;points=[[0,0.5],[1,0.5]];portConstraint=eastwest;whiteSpace=wrap;html=1;" parent="XcIPjAKrSNz59W1vHto7-17" vertex="1">
          <mxGeometry y="128" width="255" height="176" as="geometry" />
        </mxCell>
        <mxCell id="XcIPjAKrSNz59W1vHto7-21" value="&amp;lt;&amp;lt;enumeration&amp;gt;&amp;gt;&lt;br&gt;Tile.State" style="swimlane;fontStyle=1;align=center;verticalAlign=top;childLayout=stackLayout;horizontal=1;startSize=40;horizontalStack=0;resizeParent=1;resizeParentMax=0;resizeLast=0;collapsible=1;marginBottom=0;whiteSpace=wrap;html=1;" parent="1" vertex="1">
          <mxGeometry x="-163.5" y="-50" width="160" height="88" as="geometry" />
        </mxCell>
        <mxCell id="XcIPjAKrSNz59W1vHto7-22" value="&lt;div&gt;+ OCCUPIED&lt;/div&gt;&lt;div&gt;+ UNOCCUPIED&lt;br&gt;&lt;/div&gt;" style="text;strokeColor=none;fillColor=none;align=left;verticalAlign=top;spacingLeft=4;spacingRight=4;overflow=hidden;rotatable=0;points=[[0,0.5],[1,0.5]];portConstraint=eastwest;whiteSpace=wrap;html=1;" parent="XcIPjAKrSNz59W1vHto7-21" vertex="1">
          <mxGeometry y="40" width="160" height="40" as="geometry" />
        </mxCell>
        <mxCell id="XcIPjAKrSNz59W1vHto7-23" value="" style="line;strokeWidth=1;fillColor=none;align=left;verticalAlign=middle;spacingTop=-1;spacingLeft=3;spacingRight=3;rotatable=0;labelPosition=right;points=[];portConstraint=eastwest;strokeColor=inherit;" parent="XcIPjAKrSNz59W1vHto7-21" vertex="1">
          <mxGeometry y="80" width="160" height="8" as="geometry" />
        </mxCell>
        <mxCell id="XcIPjAKrSNz59W1vHto7-25" value="ConsoleUI" style="swimlane;fontStyle=1;align=center;verticalAlign=top;childLayout=stackLayout;horizontal=1;startSize=26;horizontalStack=0;resizeParent=1;resizeParentMax=0;resizeLast=0;collapsible=1;marginBottom=0;whiteSpace=wrap;html=1;" parent="1" vertex="1">
          <mxGeometry x="691" y="205" width="160" height="113" as="geometry" />
        </mxCell>
        <mxCell id="XcIPjAKrSNz59W1vHto7-26" value="&lt;div&gt;+play()&lt;/div&gt;&lt;div&gt;+show()&lt;/div&gt;&lt;div&gt;&lt;br&gt;&lt;/div&gt;" style="text;strokeColor=none;fillColor=none;align=left;verticalAlign=top;spacingLeft=4;spacingRight=4;overflow=hidden;rotatable=0;points=[[0,0.5],[1,0.5]];portConstraint=eastwest;whiteSpace=wrap;html=1;" parent="XcIPjAKrSNz59W1vHto7-25" vertex="1">
          <mxGeometry y="26" width="160" height="79" as="geometry" />
        </mxCell>
        <mxCell id="XcIPjAKrSNz59W1vHto7-27" value="" style="line;strokeWidth=1;fillColor=none;align=left;verticalAlign=middle;spacingTop=-1;spacingLeft=3;spacingRight=3;rotatable=0;labelPosition=right;points=[];portConstraint=eastwest;strokeColor=inherit;" parent="XcIPjAKrSNz59W1vHto7-25" vertex="1">
          <mxGeometry y="105" width="160" height="8" as="geometry" />
        </mxCell>
        <mxCell id="x19m7baIDcQJb-rgqlND-1" value="&amp;lt;&amp;lt;enumeration&amp;gt;&amp;gt;&lt;br&gt;GameState" style="swimlane;fontStyle=1;align=center;verticalAlign=top;childLayout=stackLayout;horizontal=1;startSize=36;horizontalStack=0;resizeParent=1;resizeParentMax=0;resizeLast=0;collapsible=1;marginBottom=0;whiteSpace=wrap;html=1;" parent="1" vertex="1">
          <mxGeometry x="350.5" y="-26" width="160" height="95" as="geometry" />
        </mxCell>
        <mxCell id="x19m7baIDcQJb-rgqlND-2" value="+ START&lt;br&gt;+ PLAYING&lt;br&gt;+ END" style="text;strokeColor=none;fillColor=none;align=left;verticalAlign=top;spacingLeft=4;spacingRight=4;overflow=hidden;rotatable=0;points=[[0,0.5],[1,0.5]];portConstraint=eastwest;whiteSpace=wrap;html=1;" parent="x19m7baIDcQJb-rgqlND-1" vertex="1">
          <mxGeometry y="36" width="160" height="51" as="geometry" />
        </mxCell>
        <mxCell id="x19m7baIDcQJb-rgqlND-3" value="" style="line;strokeWidth=1;fillColor=none;align=left;verticalAlign=middle;spacingTop=-1;spacingLeft=3;spacingRight=3;rotatable=0;labelPosition=right;points=[];portConstraint=eastwest;strokeColor=inherit;" parent="x19m7baIDcQJb-rgqlND-1" vertex="1">
          <mxGeometry y="87" width="160" height="8" as="geometry" />
        </mxCell>
        <mxCell id="x19m7baIDcQJb-rgqlND-9" value="1" style="endArrow=open;html=1;endSize=12;startArrow=diamondThin;startSize=14;startFill=1;edgeStyle=orthogonalEdgeStyle;align=left;verticalAlign=bottom;rounded=0;exitX=-0.009;exitY=1.042;exitDx=0;exitDy=0;exitPerimeter=0;entryX=1.008;entryY=0.013;entryDx=0;entryDy=0;entryPerimeter=0;" parent="1" source="XcIPjAKrSNz59W1vHto7-10" target="XcIPjAKrSNz59W1vHto7-20" edge="1">
          <mxGeometry x="-1" y="3" relative="1" as="geometry">
            <mxPoint x="271" y="264" as="sourcePoint" />
            <mxPoint x="44" y="258" as="targetPoint" />
          </mxGeometry>
        </mxCell>
        <mxCell id="x19m7baIDcQJb-rgqlND-31" value="24" style="edgeLabel;html=1;align=center;verticalAlign=middle;resizable=0;points=[];" parent="x19m7baIDcQJb-rgqlND-9" vertex="1" connectable="0">
          <mxGeometry x="0.9241" y="1" relative="1" as="geometry">
            <mxPoint y="-15" as="offset" />
          </mxGeometry>
        </mxCell>
        <mxCell id="x19m7baIDcQJb-rgqlND-12" value="" style="endArrow=open;endFill=1;endSize=12;html=1;rounded=0;entryX=0.5;entryY=1;entryDx=0;entryDy=0;" parent="1" source="XcIPjAKrSNz59W1vHto7-17" target="XcIPjAKrSNz59W1vHto7-21" edge="1">
          <mxGeometry width="160" relative="1" as="geometry">
            <mxPoint x="-92" y="120" as="sourcePoint" />
            <mxPoint x="68" y="120" as="targetPoint" />
          </mxGeometry>
        </mxCell>
        <mxCell id="x19m7baIDcQJb-rgqlND-32" value="1" style="edgeLabel;html=1;align=center;verticalAlign=middle;resizable=0;points=[];" parent="x19m7baIDcQJb-rgqlND-12" vertex="1" connectable="0">
          <mxGeometry x="0.7699" y="1" relative="1" as="geometry">
            <mxPoint x="13" as="offset" />
          </mxGeometry>
        </mxCell>
        <mxCell id="x19m7baIDcQJb-rgqlND-33" value="*" style="edgeLabel;html=1;align=center;verticalAlign=middle;resizable=0;points=[];" parent="x19m7baIDcQJb-rgqlND-12" vertex="1" connectable="0">
          <mxGeometry x="-0.7502" y="-3" relative="1" as="geometry">
            <mxPoint x="5" y="1" as="offset" />
          </mxGeometry>
        </mxCell>
        <mxCell id="x19m7baIDcQJb-rgqlND-13" value="" style="endArrow=open;endFill=1;endSize=12;html=1;rounded=0;" parent="1" source="x19m7baIDcQJb-rgqlND-20" target="x19m7baIDcQJb-rgqlND-1" edge="1">
          <mxGeometry width="160" relative="1" as="geometry">
            <mxPoint x="247" y="101" as="sourcePoint" />
            <mxPoint x="407" y="101" as="targetPoint" />
          </mxGeometry>
        </mxCell>
        <mxCell id="x19m7baIDcQJb-rgqlND-15" value="" style="endArrow=open;endFill=1;endSize=12;html=1;rounded=0;exitX=0;exitY=0.5;exitDx=0;exitDy=0;" parent="1" source="XcIPjAKrSNz59W1vHto7-26" target="XcIPjAKrSNz59W1vHto7-9" edge="1">
          <mxGeometry width="160" relative="1" as="geometry">
            <mxPoint x="618" y="296" as="sourcePoint" />
            <mxPoint x="778" y="296" as="targetPoint" />
          </mxGeometry>
        </mxCell>
        <mxCell id="x19m7baIDcQJb-rgqlND-16" value="" style="endArrow=open;endFill=1;endSize=12;html=1;rounded=0;" parent="1" source="x19m7baIDcQJb-rgqlND-20" target="XcIPjAKrSNz59W1vHto7-25" edge="1">
          <mxGeometry width="160" relative="1" as="geometry">
            <mxPoint x="771" y="80.00000000000023" as="sourcePoint" />
            <mxPoint x="828" y="146" as="targetPoint" />
          </mxGeometry>
        </mxCell>
        <mxCell id="x19m7baIDcQJb-rgqlND-17" value="" style="endArrow=open;endFill=1;endSize=12;html=1;rounded=0;" parent="1" source="XcIPjAKrSNz59W1vHto7-13" target="XcIPjAKrSNz59W1vHto7-1" edge="1">
          <mxGeometry width="160" relative="1" as="geometry">
            <mxPoint x="740" y="181" as="sourcePoint" />
            <mxPoint x="1136" y="198" as="targetPoint" />
          </mxGeometry>
        </mxCell>
        <mxCell id="x19m7baIDcQJb-rgqlND-34" value="1" style="edgeLabel;html=1;align=center;verticalAlign=middle;resizable=0;points=[];" parent="x19m7baIDcQJb-rgqlND-17" vertex="1" connectable="0">
          <mxGeometry x="0.7309" y="-1" relative="1" as="geometry">
            <mxPoint x="14" y="2" as="offset" />
          </mxGeometry>
        </mxCell>
        <mxCell id="x19m7baIDcQJb-rgqlND-35" value="*" style="edgeLabel;html=1;align=center;verticalAlign=middle;resizable=0;points=[];" parent="x19m7baIDcQJb-rgqlND-17" vertex="1" connectable="0">
          <mxGeometry x="-0.8359" y="1" relative="1" as="geometry">
            <mxPoint x="10" as="offset" />
          </mxGeometry>
        </mxCell>
        <mxCell id="x19m7baIDcQJb-rgqlND-20" value="Nine Men&#39;s Morris" style="swimlane;fontStyle=1;align=center;verticalAlign=top;childLayout=stackLayout;horizontal=1;startSize=26;horizontalStack=0;resizeParent=1;resizeParentMax=0;resizeLast=0;collapsible=1;marginBottom=0;whiteSpace=wrap;html=1;" parent="1" vertex="1">
          <mxGeometry x="691" y="-44" width="160" height="127" as="geometry" />
        </mxCell>
        <mxCell id="x19m7baIDcQJb-rgqlND-21" value="+ player1: Player&lt;br&gt;+ player2: Player" style="text;strokeColor=none;fillColor=none;align=left;verticalAlign=top;spacingLeft=4;spacingRight=4;overflow=hidden;rotatable=0;points=[[0,0.5],[1,0.5]];portConstraint=eastwest;whiteSpace=wrap;html=1;" parent="x19m7baIDcQJb-rgqlND-20" vertex="1">
          <mxGeometry y="26" width="160" height="39" as="geometry" />
        </mxCell>
        <mxCell id="x19m7baIDcQJb-rgqlND-22" value="" style="line;strokeWidth=1;fillColor=none;align=left;verticalAlign=middle;spacingTop=-1;spacingLeft=3;spacingRight=3;rotatable=0;labelPosition=right;points=[];portConstraint=eastwest;strokeColor=inherit;" parent="x19m7baIDcQJb-rgqlND-20" vertex="1">
          <mxGeometry y="65" width="160" height="8" as="geometry" />
        </mxCell>
        <mxCell id="x19m7baIDcQJb-rgqlND-23" value="+ main(args : String)&lt;br&gt;+ createUI()&lt;br&gt;+ createGame()" style="text;strokeColor=none;fillColor=none;align=left;verticalAlign=top;spacingLeft=4;spacingRight=4;overflow=hidden;rotatable=0;points=[[0,0.5],[1,0.5]];portConstraint=eastwest;whiteSpace=wrap;html=1;" parent="x19m7baIDcQJb-rgqlND-20" vertex="1">
          <mxGeometry y="73" width="160" height="54" as="geometry" />
        </mxCell>
        <mxCell id="x19m7baIDcQJb-rgqlND-25" value="1" style="endArrow=open;html=1;endSize=12;startArrow=diamondThin;startSize=14;startFill=1;edgeStyle=orthogonalEdgeStyle;align=left;verticalAlign=bottom;rounded=0;" parent="1" source="x19m7baIDcQJb-rgqlND-20" target="XcIPjAKrSNz59W1vHto7-13" edge="1">
          <mxGeometry x="-1" y="3" relative="1" as="geometry">
            <mxPoint x="884" y="37" as="sourcePoint" />
            <mxPoint x="900" y="181" as="targetPoint" />
          </mxGeometry>
        </mxCell>
        <mxCell id="x19m7baIDcQJb-rgqlND-26" value="2" style="edgeLabel;html=1;align=center;verticalAlign=middle;resizable=0;points=[];" parent="x19m7baIDcQJb-rgqlND-25" vertex="1" connectable="0">
          <mxGeometry x="0.7679" y="1" relative="1" as="geometry">
            <mxPoint x="-7" y="-8" as="offset" />
          </mxGeometry>
        </mxCell>
        <mxCell id="x19m7baIDcQJb-rgqlND-27" value="1" style="text;whiteSpace=wrap;html=1;" parent="1" vertex="1">
          <mxGeometry x="771.0027586206897" y="168.99931034482768" width="35" height="36" as="geometry" />
        </mxCell>
        <mxCell id="x19m7baIDcQJb-rgqlND-28" value="1" style="text;whiteSpace=wrap;html=1;" parent="1" vertex="1">
          <mxGeometry x="576.0044827586207" y="243.49620689655185" width="35" height="36" as="geometry" />
        </mxCell>
        <mxCell id="x19m7baIDcQJb-rgqlND-29" value="1" style="text;whiteSpace=wrap;html=1;" parent="1" vertex="1">
          <mxGeometry x="510.5013793103449" y="-7.003103448275809" width="35" height="36" as="geometry" />
        </mxCell>
      </root>
    </mxGraphModel>
  </diagram>
</mxfile>
